<svg width="24" height="22" viewBox="0 0 24 22" fill="none" xmlns="http://www.w3.org/2000/svg">
<g clip-path="url(#clip0_3014_34)">
<path fill-rule="evenodd" clip-rule="evenodd" d="M21.3624 13.1939C21.3624 13.1939 23.3028 14.8228 23.7828 15.5766C23.7921 15.5875 23.7994 15.5995 23.8044 15.6123C24 15.8907 24.048 16.109 23.952 16.2702C23.79 16.5364 23.2416 16.67 23.0556 16.6812H19.626C19.3872 16.6812 18.8904 16.6282 18.2856 16.2732C17.8236 15.9989 17.364 15.547 16.9188 15.1053C16.254 14.4495 15.6792 13.8803 15.0972 13.8803C15.0237 13.8802 14.9507 13.8905 14.8812 13.9109C14.4408 14.0292 13.8816 14.5627 13.8816 15.9836C13.8816 16.4283 13.4688 16.6812 13.1796 16.6812H11.6088C11.0736 16.6812 8.28719 16.5221 5.81639 14.3077C2.78879 11.5965 0.069586 6.1579 0.043186 6.10996C-0.126014 5.75806 0.229186 5.5663 0.613186 5.5663H4.07639C4.54079 5.5663 4.69199 5.80497 4.79759 6.01917C4.91999 6.265 5.37359 7.24828 6.11759 8.35294C7.32239 10.1502 8.06279 10.8815 8.65439 10.8815C8.76553 10.8818 8.8748 10.8572 8.97119 10.8101C9.74399 10.449 9.59999 8.10304 9.56399 7.61956C9.56399 7.52572 9.56279 6.57202 9.16679 6.11098C8.88359 5.7805 8.40119 5.65197 8.10959 5.60505C8.18759 5.50917 8.35319 5.36229 8.56559 5.27559C9.09479 5.05119 10.0512 5.01855 11.0004 5.01855H11.5272C12.5568 5.03079 12.8232 5.08689 13.1976 5.16747C13.9512 5.32047 13.9656 5.73562 13.8996 7.14934C13.8804 7.55326 13.86 8.00818 13.86 8.54368C13.86 8.65792 13.854 8.78542 13.854 8.91496C13.8312 9.64018 13.8012 10.4572 14.4036 10.7928C14.4817 10.8341 14.5719 10.8561 14.664 10.856C14.8728 10.856 15.498 10.856 17.1936 8.38252C17.9376 7.2901 18.5136 6.00183 18.5532 5.90493C18.5868 5.85087 18.6876 5.69889 18.81 5.63769C18.8971 5.59832 18.9946 5.57865 19.0932 5.58057H23.1672C23.6112 5.58057 23.9124 5.6377 23.9712 5.7805C24.0696 6.01204 23.952 6.71889 22.092 8.85682C21.7788 9.2128 21.504 9.52084 21.2628 9.79012C19.5768 11.671 19.5768 11.7659 21.3624 13.1939V13.1939Z" fill="white"/>
</g>
<defs>
<clipPath id="clip0_3014_34">
<rect y="0.649902" width="24" height="20.4" fill="white"/>
</clipPath>
</defs>
</svg>
