<svg width="26" height="24" viewBox="0 0 26 24" fill="none" xmlns="http://www.w3.org/2000/svg">
<path d="M23.8956 7.34525C23.7662 6.93642 23.5126 6.56367 23.1604 6.2643C22.8082 5.96493 22.3697 5.74944 21.8888 5.6394C20.1175 5.23193 13 5.23193 13 5.23193C13 5.23193 5.8825 5.23193 4.11125 5.6394C3.63028 5.74944 3.19175 5.96493 2.83955 6.2643C2.48735 6.56367 2.23384 6.93642 2.10438 7.34525C1.77364 8.88069 1.61315 10.4391 1.625 12.0001C1.61315 13.561 1.77364 15.1194 2.10438 16.6549C2.23384 17.0637 2.48735 17.4364 2.83955 17.7358C3.19175 18.0352 3.63028 18.2507 4.11125 18.3607C5.8825 18.7682 13 18.7682 13 18.7682C13 18.7682 20.1175 18.7682 21.8888 18.3607C22.3697 18.2507 22.8082 18.0352 23.1604 17.7358C23.5126 17.4364 23.7662 17.0637 23.8956 16.6549C24.2264 15.1194 24.3869 13.561 24.375 12.0001C24.3869 10.4391 24.2264 8.88069 23.8956 7.34525V7.34525ZM10.725 14.9007V9.09943L16.6319 12.0001L10.725 14.9007Z" fill="white"/>
</svg>
